<?xml version="1.0" encoding="UTF-8"?><svg id="Camada_1" xmlns="http://www.w3.org/2000/svg" viewBox="0 0 742.77 489.19"><defs><style>.cls-1{stroke-width:0px;}</style></defs><path class="cls-1" d="M100.01,388.43h-54.97v-10.85h22.5v-63.88l-20.96,11.38-4.28-9.91,27.85-14.66h10.31v77.07h19.55v10.85Z"/><path class="cls-1" d="M175.27,385.15c-7.01,2.9-14.35,4.35-22.03,4.35-12.37,0-21.86-3.69-28.49-11.08-6.63-7.39-9.94-18.31-9.94-32.78,0-7.01.91-13.35,2.75-19.02,1.83-5.67,4.44-10.48,7.83-14.43,3.39-3.95,7.5-7,12.32-9.14,4.82-2.14,10.22-3.21,16.2-3.21,4.06,0,7.83.35,11.32,1.04,3.48.69,6.83,1.75,10.04,3.18v11.72c-3.17-1.74-6.45-3.07-9.84-3.98-3.39-.91-7.1-1.37-11.11-1.37s-7.82.77-11.15,2.31c-3.33,1.54-6.15,3.77-8.47,6.7-2.32,2.92-4.11,6.49-5.36,10.71-1.25,4.22-1.87,9.03-1.87,14.43,0,11.34,2.3,19.89,6.9,25.64,4.6,5.76,11.34,8.64,20.22,8.64,3.75,0,7.34-.43,10.78-1.31,3.44-.87,6.74-2.09,9.91-3.65v11.25Z"/><path class="cls-1" d="M249.99,388.43h-50.35v-87.51h12.12v77.33h38.23v10.18Z"/><path class="cls-1" d="M291.1,310.96h-20.15v-10.04h52.36v10.04h-20.15v67.29h20.15v10.18h-52.36v-10.18h20.15v-67.29Z"/><path class="cls-1" d="M401.44,385.15c-7.01,2.9-14.35,4.35-22.03,4.35-12.37,0-21.86-3.69-28.49-11.08-6.63-7.39-9.94-18.31-9.94-32.78,0-7.01.91-13.35,2.75-19.02,1.83-5.67,4.44-10.48,7.83-14.43,3.39-3.95,7.5-7,12.32-9.14,4.82-2.14,10.22-3.21,16.2-3.21,4.06,0,7.83.35,11.32,1.04,3.48.69,6.83,1.75,10.04,3.18v11.72c-3.17-1.74-6.45-3.07-9.84-3.98-3.39-.91-7.1-1.37-11.11-1.37s-7.82.77-11.15,2.31c-3.33,1.54-6.15,3.77-8.47,6.7-2.32,2.92-4.11,6.49-5.36,10.71-1.25,4.22-1.87,9.03-1.87,14.43,0,11.34,2.3,19.89,6.9,25.64,4.6,5.76,11.34,8.64,20.22,8.64,3.75,0,7.34-.43,10.78-1.31,3.44-.87,6.74-2.09,9.91-3.65v11.25Z"/><path class="cls-1" d="M480.32,388.43h-15l-32.74-42.92v42.92h-11.92v-87.51h11.92v40.64l32.07-40.64h14.13l-34.55,41.58,36.09,45.93Z"/><path class="cls-1" d="M709.21,265.74c1.94,0,3.78.37,5.51,1.12,1.73.75,3.23,1.75,4.52,3.03,1.28,1.27,2.3,2.77,3.04,4.5.75,1.73,1.12,3.56,1.12,5.51s-.37,3.81-1.12,5.53c-.75,1.72-1.76,3.22-3.04,4.5-1.28,1.28-2.79,2.3-4.52,3.04-1.73.75-3.57,1.12-5.51,1.12s-3.81-.37-5.53-1.12c-1.72-.75-3.22-1.76-4.5-3.04-1.28-1.28-2.3-2.78-3.04-4.5-.75-1.72-1.12-3.56-1.12-5.53s.37-3.78,1.12-5.51c.75-1.73,1.76-3.23,3.04-4.5,1.28-1.27,2.78-2.28,4.5-3.03s3.56-1.12,5.53-1.12ZM709.21,268.91c-1.47,0-2.85.29-4.14.87-1.29.58-2.42,1.37-3.38,2.36-.96.99-1.72,2.16-2.27,3.49-.55,1.33-.82,2.76-.82,4.27s.27,2.96.82,4.3c.55,1.33,1.3,2.5,2.27,3.49.96.99,2.09,1.78,3.38,2.36,1.29.58,2.67.87,4.14.87s2.88-.29,4.16-.87c1.28-.58,2.4-1.37,3.37-2.36.96-.99,1.72-2.16,2.27-3.49.55-1.33.82-2.77.82-4.3s-.28-2.93-.82-4.27c-.55-1.33-1.31-2.5-2.27-3.49-.96-.99-2.09-1.78-3.37-2.36-1.28-.58-2.67-.87-4.16-.87ZM712.35,287.97l-2.3-5.22c-.23-.48-.52-.84-.88-1.09-.36-.25-.81-.37-1.35-.37h-.62v6.67h-3.13v-16.14h4.84c1.82,0,3.27.33,4.34.99,1.08.66,1.62,1.82,1.62,3.48,0,1.18-.34,2.1-1.01,2.76s-1.52,1.08-2.53,1.24c.37.1.72.33,1.05.68.33.35.67.88,1.02,1.58l2.55,5.4h-3.6ZM711.63,276.61c0-.79-.25-1.36-.76-1.71-.51-.35-1.27-.53-2.28-.53h-1.4v4.53h1.27c.95,0,1.72-.19,2.3-.57.58-.38.87-.96.87-1.72Z"/><path class="cls-1" d="M517.5,368.44c1.52,0,2.96.29,4.32.87,1.36.58,2.55,1.38,3.55,2.41,1,1.03,1.8,2.22,2.38,3.58.58,1.36.87,2.82.87,4.39s-.29,2.95-.87,4.28c-.58,1.34-1.37,2.51-2.38,3.52s-2.19,1.8-3.55,2.38c-1.36.58-2.8.87-4.32.87s-3.01-.29-4.35-.87c-1.34-.58-2.51-1.37-3.52-2.38s-1.8-2.18-2.38-3.52c-.58-1.34-.87-2.77-.87-4.28s.29-3.02.87-4.39c.58-1.36,1.37-2.55,2.38-3.58,1-1.03,2.18-1.83,3.52-2.41,1.34-.58,2.79-.87,4.35-.87Z"/><path class="cls-1" d="M630.46,389.53h-12.99l-6.09-19.08h-36.42l-6.16,19.08h-12.39l29.06-87.51h16.34l28.66,87.51ZM607.96,359.8l-14.8-46.8-14.8,46.8h29.59Z"/><path class="cls-1" d="M662.8,312.06h-20.15v-10.04h52.36v10.04h-20.15v67.29h20.15v10.18h-52.36v-10.18h20.15v-67.29Z"/><path class="cls-1" d="M59.02,451.07v11.3h-6.1v-11.25l-10.37-20.65h6.66l4.69,9.86,2.15,4.83,2.15-4.98,4.91-9.71h6.39l-10.47,20.6Z"/><path class="cls-1" d="M96.5,449.77c0,1.95-.28,3.74-.83,5.36-.55,1.62-1.35,3.01-2.39,4.16-1.04,1.16-2.32,2.05-3.83,2.68-1.51.63-3.24.95-5.17.95s-3.48-.27-4.93-.81c-1.45-.54-2.68-1.34-3.69-2.4-1.01-1.07-1.78-2.4-2.32-4-.54-1.6-.81-3.47-.81-5.6,0-1.97.28-3.76.84-5.37.56-1.61,1.37-2.99,2.42-4.12,1.05-1.14,2.33-2.02,3.84-2.65,1.51-.63,3.22-.94,5.12-.94s3.51.27,4.95.82,2.68,1.35,3.69,2.43c1.01,1.07,1.78,2.4,2.31,3.99.53,1.59.79,3.42.79,5.5ZM90.3,449.92c0-2.57-.49-4.5-1.45-5.8-.97-1.29-2.4-1.94-4.28-1.94-1.04,0-1.93.2-2.66.61-.73.41-1.33.96-1.81,1.67-.47.71-.82,1.53-1.04,2.48-.22.94-.33,1.95-.33,3.03,0,2.59.52,4.54,1.56,5.84,1.04,1.31,2.47,1.96,4.27,1.96.99,0,1.85-.2,2.59-.6s1.33-.95,1.78-1.66c.46-.71.8-1.54,1.03-2.5.23-.96.34-1.99.34-3.1Z"/><path class="cls-1" d="M108.56,437.57v16.15c0,1.35.25,2.37.76,3.06.5.69,1.27,1.04,2.29,1.04s1.95-.41,2.87-1.23c.92-.82,1.89-1.93,2.92-3.33v-15.69h5.95v24.79h-5.15l-.15-3.66c-.52.63-1.05,1.21-1.59,1.73-.54.52-1.12.96-1.75,1.33s-1.31.65-2.05.85c-.74.2-1.56.31-2.45.31-1.27,0-2.38-.21-3.33-.62-.95-.41-1.75-1-2.38-1.77-.64-.76-1.11-1.68-1.43-2.74-.32-1.07-.48-2.26-.48-3.58v-16.64h5.95Z"/><path class="cls-1" d="M181.94,449.77c0,1.95-.28,3.74-.83,5.36-.55,1.62-1.35,3.01-2.39,4.16s-2.32,2.05-3.83,2.68c-1.51.63-3.24.95-5.17.95s-3.48-.27-4.93-.81c-1.45-.54-2.68-1.34-3.68-2.4-1.01-1.07-1.78-2.4-2.32-4-.54-1.6-.81-3.47-.81-5.6,0-1.97.28-3.76.84-5.37.56-1.61,1.37-2.99,2.42-4.12,1.05-1.14,2.33-2.02,3.84-2.65,1.51-.63,3.22-.94,5.12-.94s3.51.27,4.95.82c1.45.55,2.68,1.35,3.68,2.43,1.01,1.07,1.78,2.4,2.31,3.99.53,1.59.79,3.42.79,5.5ZM175.74,449.92c0-2.57-.48-4.5-1.45-5.8-.97-1.29-2.39-1.94-4.28-1.94-1.04,0-1.93.2-2.66.61-.73.41-1.33.96-1.81,1.67s-.82,1.53-1.04,2.48c-.22.94-.33,1.95-.33,3.03,0,2.59.52,4.54,1.56,5.84,1.04,1.31,2.46,1.96,4.27,1.96.99,0,1.85-.2,2.59-.6.73-.4,1.32-.95,1.78-1.66.45-.71.8-1.54,1.02-2.5s.34-1.99.34-3.1Z"/><path class="cls-1" d="M202.87,462.37v-16.16c0-2.72-1.01-4.08-3.03-4.08-1.01,0-1.97.41-2.89,1.22-.92.81-1.89,1.92-2.92,3.32v15.69h-5.95v-24.79h5.15l.15,3.66c.5-.63,1.03-1.21,1.57-1.73.55-.52,1.13-.96,1.77-1.33.64-.37,1.32-.65,2.05-.84.73-.19,1.55-.29,2.47-.29,1.27,0,2.37.21,3.32.62.94.41,1.73,1,2.37,1.76.64.76,1.11,1.67,1.43,2.73.32,1.07.48,2.26.48,3.58v16.64h-5.95Z"/><path class="cls-1" d="M224.57,432.52h-7v-4.64h13.11v29.85h7.15v4.64h-21.11v-4.64h7.86v-25.21Z"/><path class="cls-1" d="M259.95,459.66c-.86,2.15-1.76,4.03-2.7,5.65-.94,1.62-1.96,2.97-3.09,4.05-1.12,1.08-2.37,1.89-3.75,2.44-1.37.55-2.92.82-4.63.82-.41,0-.85-.02-1.33-.06-.48-.04-.97-.1-1.48-.18v-5.05c.19.03.42.07.67.11.25.04.52.07.79.1.28.02.56.05.84.06.28.02.55.02.79.02.68,0,1.32-.13,1.9-.39.59-.26,1.13-.62,1.62-1.09s.95-1.02,1.35-1.66c.41-.64.76-1.35,1.07-2.11l-9.83-24.79h6.64l5.15,14.06,1.54,4.54,1.51-4.34,5.2-14.25h6.39l-8.69,22.08Z"/><path class="cls-1" d="M316.78,462.37v-16.16c0-2.72-1.01-4.08-3.03-4.08-1.01,0-1.97.41-2.89,1.22-.92.81-1.89,1.92-2.92,3.32v15.69h-5.95v-24.79h5.15l.15,3.66c.5-.63,1.03-1.21,1.57-1.73s1.13-.96,1.77-1.33c.63-.37,1.32-.65,2.05-.84.73-.19,1.55-.29,2.47-.29,1.27,0,2.37.21,3.32.62.94.41,1.73,1,2.37,1.76.63.76,1.11,1.67,1.43,2.73.32,1.07.47,2.26.47,3.58v16.64h-5.95Z"/><path class="cls-1" d="M352.07,448.07c0,.41-.01.94-.04,1.59-.02.65-.06,1.26-.11,1.83h-16.3c0,1.09.17,2.05.5,2.88.33.83.81,1.53,1.41,2.09.61.56,1.34.99,2.2,1.28.85.29,1.8.44,2.84.44,1.2,0,2.49-.09,3.87-.28,1.37-.19,2.8-.49,4.28-.91v4.73c-.64.18-1.33.34-2.07.49-.75.15-1.51.28-2.29.39-.78.11-1.57.2-2.37.26s-1.57.09-2.32.09c-1.89,0-3.58-.27-5.07-.81-1.5-.54-2.77-1.33-3.81-2.38-1.04-1.05-1.84-2.35-2.39-3.89-.55-1.55-.83-3.33-.83-5.37s.28-3.85.83-5.5c.55-1.65,1.33-3.07,2.34-4.25,1.01-1.18,2.23-2.09,3.67-2.73,1.44-.64,3.05-.96,4.82-.96s3.31.27,4.66.82,2.48,1.31,3.39,2.28c.91.98,1.6,2.14,2.07,3.49.47,1.35.71,2.83.71,4.44ZM346.02,447.21c.02-.98-.11-1.83-.37-2.55s-.62-1.32-1.06-1.79c-.45-.47-.97-.82-1.56-1.05-.59-.23-1.23-.34-1.92-.34-1.5,0-2.73.5-3.68,1.5-.96,1-1.53,2.41-1.71,4.23h10.3Z"/><path class="cls-1" d="M380.55,448.07c0,.41-.01.94-.04,1.59-.02.65-.06,1.26-.11,1.83h-16.3c0,1.09.17,2.05.5,2.88.33.83.81,1.53,1.41,2.09.61.56,1.34.99,2.2,1.28.85.29,1.8.44,2.84.44,1.2,0,2.49-.09,3.87-.28,1.37-.19,2.8-.49,4.28-.91v4.73c-.64.18-1.33.34-2.07.49-.75.15-1.51.28-2.29.39-.78.11-1.57.2-2.37.26s-1.57.09-2.32.09c-1.89,0-3.58-.27-5.07-.81-1.5-.54-2.77-1.33-3.81-2.38-1.04-1.05-1.84-2.35-2.39-3.89-.55-1.55-.83-3.33-.83-5.37s.28-3.85.83-5.5c.55-1.65,1.33-3.07,2.34-4.25,1.01-1.18,2.23-2.09,3.67-2.73,1.44-.64,3.05-.96,4.82-.96s3.31.27,4.66.82,2.48,1.31,3.39,2.28c.91.98,1.6,2.14,2.07,3.49.47,1.35.71,2.83.71,4.44ZM374.5,447.21c.02-.98-.11-1.83-.37-2.55s-.62-1.32-1.06-1.79c-.45-.47-.97-.82-1.56-1.05-.59-.23-1.23-.34-1.92-.34-1.5,0-2.73.5-3.68,1.5-.96,1-1.53,2.41-1.71,4.23h10.3Z"/><path class="cls-1" d="M403.03,462.37l-.15-3.66c-.52.63-1.06,1.21-1.61,1.73-.55.52-1.15.96-1.78,1.33-.63.37-1.31.65-2.04.85s-1.53.31-2.4.31c-1.46,0-2.77-.29-3.9-.88-1.14-.59-2.09-1.42-2.87-2.5-.77-1.08-1.36-2.4-1.77-3.94-.41-1.55-.61-3.27-.61-5.17,0-2.28.32-4.25.96-5.92.64-1.67,1.53-3.05,2.67-4.15s2.49-1.91,4.05-2.44c1.56-.53,3.26-.79,5.1-.79.62,0,1.24.04,1.87.12.63.08,1.18.19,1.67.32v-9.69h5.95v34.48h-5.15ZM392.14,450.16c0,1.37.09,2.53.28,3.5.19.97.46,1.76.83,2.38.37.62.82,1.07,1.35,1.35s1.15.43,1.83.43c1.01,0,1.97-.41,2.88-1.22s1.88-1.93,2.9-3.34v-10.84c-.47-.18-1.05-.32-1.75-.44-.69-.11-1.39-.17-2.09-.17-.96,0-1.82.19-2.59.59-.77.39-1.42.94-1.96,1.66-.55.72-.96,1.59-1.26,2.62-.29,1.03-.44,2.19-.44,3.48Z"/><path class="cls-1" d="M466.72,449.77c0,1.95-.28,3.74-.83,5.36s-1.35,3.01-2.39,4.16c-1.04,1.16-2.32,2.05-3.83,2.68-1.51.63-3.24.95-5.17.95s-3.48-.27-4.93-.81c-1.45-.54-2.68-1.34-3.69-2.4-1.01-1.07-1.78-2.4-2.32-4-.54-1.6-.81-3.47-.81-5.6,0-1.97.28-3.76.84-5.37.56-1.61,1.37-2.99,2.42-4.12,1.05-1.14,2.33-2.02,3.84-2.65,1.51-.63,3.22-.94,5.12-.94s3.51.27,4.95.82,2.68,1.35,3.69,2.43,1.78,2.4,2.31,3.99c.53,1.59.79,3.42.79,5.5ZM460.52,449.92c0-2.57-.49-4.5-1.45-5.8-.97-1.29-2.4-1.94-4.28-1.94-1.04,0-1.93.2-2.66.61-.73.41-1.33.96-1.81,1.67-.47.71-.82,1.53-1.04,2.48-.22.94-.33,1.95-.33,3.03,0,2.59.52,4.54,1.56,5.84,1.04,1.31,2.47,1.96,4.27,1.96.99,0,1.85-.2,2.59-.6s1.33-.95,1.78-1.66c.46-.71.8-1.54,1.03-2.5.23-.96.34-1.99.34-3.1Z"/><path class="cls-1" d="M487.65,462.37v-16.16c0-2.72-1.01-4.08-3.03-4.08-1.01,0-1.97.41-2.89,1.22-.92.81-1.89,1.92-2.92,3.32v15.69h-5.95v-24.79h5.15l.15,3.66c.5-.63,1.03-1.21,1.57-1.73s1.13-.96,1.77-1.33c.63-.37,1.32-.65,2.05-.84.73-.19,1.55-.29,2.47-.29,1.27,0,2.37.21,3.32.62.94.41,1.73,1,2.37,1.76.63.76,1.11,1.67,1.43,2.73.32,1.07.47,2.26.47,3.58v16.64h-5.95Z"/><path class="cls-1" d="M522.94,448.07c0,.41-.01.94-.04,1.59-.02.65-.06,1.26-.11,1.83h-16.3c0,1.09.17,2.05.5,2.88.33.83.81,1.53,1.42,2.09.61.56,1.34.99,2.2,1.28.85.29,1.8.44,2.84.44,1.2,0,2.49-.09,3.87-.28,1.37-.19,2.8-.49,4.28-.91v4.73c-.63.18-1.33.34-2.07.49-.75.15-1.51.28-2.29.39s-1.57.2-2.37.26-1.57.09-2.32.09c-1.89,0-3.58-.27-5.08-.81-1.5-.54-2.77-1.33-3.81-2.38s-1.84-2.35-2.39-3.89c-.55-1.55-.83-3.33-.83-5.37s.28-3.85.83-5.5c.55-1.65,1.33-3.07,2.34-4.25,1.01-1.18,2.23-2.09,3.67-2.73,1.44-.64,3.05-.96,4.82-.96s3.31.27,4.66.82,2.48,1.31,3.39,2.28c.91.98,1.6,2.14,2.07,3.49.47,1.35.71,2.83.71,4.44ZM516.89,447.21c.02-.98-.11-1.83-.37-2.55s-.61-1.32-1.06-1.79c-.45-.47-.97-.82-1.56-1.05-.6-.23-1.23-.34-1.92-.34-1.5,0-2.73.5-3.69,1.5s-1.53,2.41-1.71,4.23h10.3Z"/><path class="cls-1" d="M578.36,461.42c-1.17.47-2.38.82-3.64,1.05-1.25.23-2.56.34-3.93.34-1.97,0-3.73-.27-5.3-.81-1.56-.54-2.89-1.33-3.98-2.39-1.09-1.06-1.92-2.37-2.5-3.93-.58-1.56-.87-3.37-.87-5.42s.31-3.78.94-5.39c.63-1.61,1.51-2.99,2.65-4.12s2.51-2.02,4.11-2.64c1.6-.62,3.39-.93,5.36-.93,1.61,0,2.96.09,4.06.26,1.1.17,2.09.39,2.96.65v5.78c-1.01-.5-2.1-.89-3.28-1.17-1.18-.28-2.3-.41-3.36-.41s-2.1.19-2.98.56c-.88.37-1.62.89-2.22,1.56s-1.06,1.48-1.38,2.43c-.32.95-.47,2-.47,3.14s.17,2.25.51,3.2.83,1.74,1.45,2.4,1.38,1.16,2.26,1.51c.88.35,1.85.53,2.93.53.52,0,1.07-.04,1.65-.11s1.15-.18,1.73-.32,1.15-.3,1.71-.48c.56-.18,1.09-.37,1.57-.59v5.3Z"/><path class="cls-1" d="M594.78,432.52h-7v-4.64h13.1v29.85h7.15v4.64h-21.11v-4.64h7.86v-25.21Z"/><path class="cls-1" d="M623.26,442.21h-7v-4.64h13.1v20.16h7.15v4.64h-21.11v-4.64h7.86v-15.52ZM629.85,430.79c0,.54-.1,1.04-.29,1.51-.2.47-.47.88-.82,1.23-.35.35-.76.63-1.23.83-.47.2-.98.3-1.54.3s-1.07-.1-1.55-.3c-.48-.2-.89-.48-1.24-.83-.35-.35-.62-.76-.82-1.23-.2-.47-.29-.98-.29-1.51s.1-1.04.29-1.51c.19-.47.47-.89.82-1.24.35-.36.77-.64,1.24-.84.48-.2,1-.31,1.55-.31s1.07.1,1.54.31c.47.2.88.48,1.23.84.35.36.62.77.82,1.24.19.47.29.98.29,1.51Z"/><path class="cls-1" d="M663.79,461.42c-1.17.47-2.38.82-3.64,1.05-1.25.23-2.56.34-3.93.34-1.97,0-3.73-.27-5.3-.81-1.56-.54-2.89-1.33-3.98-2.39-1.09-1.06-1.92-2.37-2.5-3.93-.58-1.56-.87-3.37-.87-5.42s.31-3.78.94-5.39c.63-1.61,1.51-2.99,2.65-4.12s2.51-2.02,4.11-2.64c1.6-.62,3.39-.93,5.36-.93,1.61,0,2.96.09,4.06.26s2.09.39,2.96.65v5.78c-1.01-.5-2.1-.89-3.28-1.17-1.18-.28-2.3-.41-3.35-.41s-2.1.19-2.98.56c-.88.37-1.62.89-2.22,1.56-.6.67-1.06,1.48-1.38,2.43-.32.95-.48,2-.48,3.14s.17,2.25.51,3.2c.34.94.83,1.74,1.45,2.4.63.66,1.38,1.16,2.26,1.51.88.35,1.86.53,2.93.53.52,0,1.07-.04,1.65-.11.58-.07,1.15-.18,1.73-.32.58-.14,1.15-.3,1.71-.48.56-.18,1.09-.37,1.57-.59v5.3Z"/><path class="cls-1" d="M687.56,462.37l-9.15-12.4v12.4h-5.95v-34.48h5.95v20.18l8.66-10.49h7.44l-10.05,11.3,10.88,13.5h-7.78Z"/><path class="cls-1" d="M361.54,223.12c-.04-6.22.92-12.29-1.16-18.35-4.03-11.73-16.76-17.52-26.71-24.93-2.15-1.6-4.28-3.43-5.26-5.92-1.01-2.57-.63-5.45-.19-8.18,1.32-8.2,2.94-16.35,4.33-24.54.25-1.51.43-3.17-.35-4.55-1.48-2.61-4.94-4.14-7.42-5.4-11.83-6.01-18.47-17.92-18.75-30.84,0-.25,0-.5,0-.74-.01-2.78.24-5.56.74-8.3.49-2.61,1.46-5.13,1.65-7.79.24-3.61-2.98-4.94-5.84-6.24-3.68-1.68-6.82-2.92-10.33-4.97-2.55-1.5-5.71-3.95-8.57-4.8-.82-.24-1.72-.3-2.52,0-2.07.78-3.03,3.51-3.53,5.46-.38,1.48-.71,2.97-1.02,4.47-.62,3.04-1.12,6.09-1.63,9.15-.58,3.81-.95,7.66-1.11,11.52-.17,3.87-.13,7.75.08,11.62.21,3.88.6,7.74,1.15,11.59.42,2.93.93,5.85,1.54,8.76,2.5,12.09,6.52,24.05,13.5,34.23,3.25,4.74,7.27,9.4,7.91,15.12.29,2.59-.15,5.2-.59,7.76-1.75,10.22-3.49,20.44-5.24,30.65-.64,3.73-1.24,7.72.33,11.15,2.1,4.58,7.32,6.7,12.09,8.3,16.87,5.66,34.1,9.95,51.58,13.23,3.88.7,9.32.29,9.88-3.61.2-1.41-.41-2.79-.95-4.11-2.55-6.24-3.56-13.03-3.6-19.74Z"/><path class="cls-1" d="M342.62,129.03c-16.4,0-29.74-13.34-29.74-29.74s13.34-29.74,29.74-29.74,29.74,13.34,29.74,29.74-13.34,29.74-29.74,29.74ZM342.62,76.65c-12.48,0-22.64,10.16-22.64,22.64s10.15,22.64,22.64,22.64,22.64-10.16,22.64-22.64-10.16-22.64-22.64-22.64Z"/><path class="cls-1" d="M461.99,153.66c-2.12-3.6-4.91-6.8-7.39-10.19-3.12-4.27-6.43-8.42-9.26-12.88-3.67-5.78-4.8-12.08-3.58-19,2.47-14.01,2.62-28.03-1.51-41.83-5.79-19.34-18.63-32.29-36.78-40.37-3.17-1.41-6.42-2.61-9.73-3.65-7.63-2.4-15.44-4.27-23.37-5.36-4.31-.59-8.65-1-12.99-1.18-7.86-.32-15.77.13-23.5,1.67-7,1.39-13.82,3.7-20.14,7.02-6.17,3.24-11.81,7.43-16.73,12.35-2.53,2.53-4.89,5.24-7.04,8.1-1.1,1.47-2.15,2.98-3.14,4.54-1.08,1.7-1.6,3.55-.42,5.36,2.14,3.28,11.58,8.48,14.93,10.17,5.65,2.87,6.9,3.98,12.54,3.88,4.27-.08,7.34-3.51,10.89-5.49,3.82-2.13,8.38-3.13,12.67-3.74,15.1-2.17,31.13,6.36,38.12,20.3,3.66,7.29,4.54,15.22,2.7,24.23-2.67,13.04-14.82,25.35-25.04,25.35-5.15-.04-9.71,3.6-10.57,8.61-1.36,7.86-2.75,15.72-4.12,23.58-.35,1.97.27,3.43,1.88,4.66,6.29,4.83,12.5,9.77,18.78,14.61,11.12,8.57,15.98,19.74,14.12,33.72-.29,2.22.67,3.56,2.58,4.43,7.17,3.25,14.22,6.76,21.44,9.9,3.91,1.7,7.87,3.29,11.92,4.66,11.14,3.78,20.92-1.43,23.63-12.92,1.04-4.42,1.2-9.07,1.44-13.63.08-1.56.48-2.37,1.8-3.03,2.09-1.05,4.09-2.26,6.16-3.34,2.47-1.29,3.71-3.45,2.94-5.98-1.39-4.58-.4-7.85,3.42-10.93,2.74-2.21,3.55-5.76.96-9.43-1.13-1.61-1.34-3.87-1.96-5.83,2.71-1.05,5.06-1.86,7.31-2.88,1.48-.67,2.89-1.55,4.18-2.53,4.54-3.42,5.74-8.08,2.87-12.95ZM453.66,161.82c-3.03,1.51-6.33,2.51-9.58,3.5-2.13.65-3.63,1.72-3.39,4.03.32,3.08.91,6.13,1.46,9.17.27,1.51,1.41,3.25.94,4.39-.57,1.41-2.35,2.39-3.72,3.4-.65.48-1.55.69-2.37.85-2.75.52-5.52.93-8.27,1.45-2.8.52-4.04,1.95-3.69,4.14.36,2.22,2.15,3.21,5.01,2.74,2.42-.4,4.84-.81,7.21-1.21,1.24,4.02,1.22,3.99-2,5.79-2.1,1.17-4.21,2.37-6.18,3.75-1.54,1.07-2.33,2.6-1.98,4.65.81,4.76.27,9.47-.98,14.09-2.05,7.62-7.67,10.73-15.01,7.75-9.64-3.91-19.07-8.34-28.64-12.45-1.47-.63-1.93-1.37-1.86-2.94.64-14.58-4.95-26.34-16.32-35.38-5.66-4.5-11.42-8.88-17.06-13.39-.66-.53-1.38-1.62-1.29-2.36.56-4.67,1.36-9.37,2.31-13.98.49-2.39.98-4.75,1.37-7.06.28-1.6,1.73-2.72,3.6-2.72,13.65,0,28.58-14.48,31.97-31.02,2.18-10.63,1.1-20.07-3.31-28.84-8.32-16.58-27.43-26.73-45.48-24.14-3.9.56-7.96,1.47-11.7,2.95-1.88.74-3.75,1.62-5.46,2.71s-3.04,2.45-4.86,3.16c-3.47,1.36-8.27-.98-11.07-2.72-2.92-1.82-5.01-2.88-7.96-4.91-.55-.38-.97-1.09-1.15-1.74-.21-.81.2-1.67.72-2.33,1.76-2.21,3.66-4.31,5.59-6.38,2.41-2.58,5.02-4.97,7.82-7.12,5.56-4.27,11.84-7.53,18.49-9.72,7.22-2.37,14.81-3.49,22.39-3.73,8.85-.27,17.71.64,26.42,2.22,3.96.72,7.83,1.89,11.7,2.98s8.1,2.28,11.99,3.89c20.03,8.3,32.49,22.93,36.07,44.62,1.73,10.48,1.22,20.95-.66,31.34-1.27,7.04-.39,13.74,3.02,19.89,2.74,4.94,6.1,9.56,9.38,14.18,2.52,3.55,5.46,6.8,7.98,10.34,2.14,3.02,1.86,4.48-1.47,6.13Z"/><circle class="cls-1" cx="342.62" cy="99.29" r="12.55"/></svg>